<svg id="e3Vno9KUTNz1"
    xmlns="http://www.w3.org/2000/svg"
    xmlns:xlink="http://www.w3.org/1999/xlink" viewBox="0 0 300 300" shape-rendering="geometricPrecision" text-rendering="geometricPrecision" project-id="4eabf6350383444f99de83f15740846c" export-id="a65aef5f3aad4154b94f0557061fd3f2" cached="false">
    <path d="M79.76366,252.22089c-8.4186,0-15.24323-6.16889-15.24323-13.7786v-176.88456c0-7.60971,6.82463-13.7786,15.24323-13.7786h144.95196c8.4186,0,15.24323,6.16889,15.24323,13.7786v176.88456c0,7.60971-6.82463,13.7786-15.24323,13.7786h-144.95196ZM222.59743,91.30749c3.92579,0,7.10828-5.40843,7.10828-12.08006s-3.18248-12.08006-7.10828-12.08006h-70.15208c-3.92579,0-7.10828,5.40843-7.10828,12.08006s3.18248,12.08006,7.10828,12.08006h70.15208Zm-5.94516,108.65054c7.20921,0,13.05344-5.40843,13.05344-12.08006s-5.84422-12.08006-13.05344-12.08006h-128.82525c-7.20921,0-13.05344,5.40843-13.05344,12.08006s5.84422,12.08006,13.05344,12.08006h128.82525Zm0,36.21685c7.20921,0,13.05344-5.40843,13.05344-12.08006s-5.84422-12.08006-13.05344-12.08006h-128.82525c-7.20921,0-13.05344,5.40843-13.05344,12.08006s5.84422,12.08006,13.05344,12.08006h128.82525Zm0-72.4337c7.20921,0,13.05344-5.40843,13.05344-12.08006s-5.84422-12.08006-13.05344-12.08006h-128.82525c-7.20921,0-13.05344,5.40843-13.05344,12.08006s5.84422,12.08006,13.05344,12.08006h128.82525Zm5.94516-36.21685c3.92579,0,7.10828-5.40843,7.10828-12.08006s-3.18248-12.08006-7.10828-12.08006h-70.15208c-3.92579,0-7.10828,5.40843-7.10828,12.08006s3.18248,12.08006,7.10828,12.08006h70.15208ZM103.51564,94.22742c8.28427,0,15-6.71573,15-15s-6.71573-15-15-15-15,6.71573-15,15s6.71573,15,15,15ZM74.7736,111.37083h-.00002v16.1535h57.48412v-16.1535h-.00002v-.00008c0-8.92128-5.94924-16.1534-13.28799-16.1534h-30.90811c-7.33876,0-13.28799,7.23212-13.28799,16.1534l.00001.00008Z" stroke-width="0"/>
</svg>
