<svg width="13" height="10" viewBox="0 0 13 10" fill="none"
    xmlns="http://www.w3.org/2000/svg">
    <path d="M0.102406 1.5072L6.50001 4.7056L12.8976 1.5072C12.8739 1.09956 12.6953 0.71639 12.3983 0.436181C12.1012 0.155972 11.7083 -7.48677e-05 11.3 2.69467e-08H1.70001C1.29167 -7.48677e-05 0.898764 0.155972 0.601748 0.436181C0.304733 0.71639 0.126089 1.09956 0.102406 1.5072Z" fill="#1E1F26"/>
    <path d="M12.9 3.2944L6.50001 6.4944L0.100006 3.2944V8C0.100006 8.42435 0.268577 8.83131 0.568635 9.13137C0.868693 9.43143 1.27566 9.6 1.70001 9.6H11.3C11.7244 9.6 12.1313 9.43143 12.4314 9.13137C12.7314 8.83131 12.9 8.42435 12.9 8V3.2944Z" fill="#1E1F26"/>
</svg>
